<?xml version="1.0" standalone="no"?><!DOCTYPE svg PUBLIC "-//W3C//DTD SVG 1.1//EN" "http://www.w3.org/Graphics/SVG/1.1/DTD/svg11.dtd"><svg t="1623304025958" class="icon" viewBox="0 0 1024 1024" version="1.1" xmlns="http://www.w3.org/2000/svg" p-id="4916" xmlns:xlink="http://www.w3.org/1999/xlink" width="200" height="200"><defs><style type="text/css"></style></defs><path d="M416.6 928.6a256.5 31.6 0 1 0 513 0 256.5 31.6 0 1 0-513 0z" fill="#EEEEEE" p-id="4917"></path><path d="M283.7 909.7c-10.3-3.5-20.3-7.3-30.1-11.2l-166.8-354-0.9-1.9h42.2l1.9 4.4 153.7 362.7z m67.7 18.9c-8.8-2-17.5-4.1-26.1-6.4l-127-360.1c13.7 2.4 28.1 4.7 43.3 6.8l109.8 359.7z" fill="#FFE486" p-id="4918"></path><path d="M413 939.4c-8.1-1-16.2-2.2-24.2-3.5l-84.2-359.6c13.4 1.3 27.1 2.5 41.2 3.5L413 939.4z m58.8 5.2c-7.8-0.4-15.6-0.9-23.3-1.5L407 583.4c13.2 0.6 26.7 1.1 40.3 1.5l24.5 359.7z m75.9-358.9L529.5 945c-7.2 0.2-14.5 0.3-21.8 0.3h-1.3l1.1-359.5h10.8c9.9 0.1 19.7 0 29.4-0.1z m100.9-3.2l-60.7 358.7c-7.8 0.9-15.6 1.6-23.5 2.2l43.7-359c13.7-0.6 27.2-1.2 40.5-1.9z" fill="#FFDD7B" p-id="4919"></path><path d="M751.6 574.2L648.7 931.9c-8.2 1.6-16.4 3.1-24.8 4.4l86.1-358c14.3-1.3 28.2-2.6 41.6-4.1z m108.3-16.1L714.8 915.2c-9 2.8-18 5.4-27.3 7.8l128.2-357.1c15.6-2.4 30.4-5.1 44.2-7.8z" fill="#FFCF67" p-id="4920"></path><path d="M325.3 922.3c-14.2-3.8-28.1-8-41.6-12.6L129.9 546.9c19.6 5.6 42.5 10.7 68.3 15.2l127.1 360.2z" fill="#FDCD00" p-id="4921"></path><path d="M388.8 935.9c-12.7-2.1-25.2-4.5-37.5-7.2L241.6 568.9c19.9 2.7 41 5.2 63.1 7.3l84.1 359.7z m59.7 7.2c-12-0.9-23.8-2.2-35.5-3.7l-67.1-359.6c19.7 1.5 40.1 2.7 61 3.6l41.6 359.7z m59-357.2l-1.1 359.5c-11.7 0-23.2-0.3-34.6-0.8l-24.5-359.7c19.7 0.6 39.8 0.9 60.2 1z m100.6-1.6l-43.7 359c-11.5 0.9-23.1 1.5-34.8 1.8l18.2-359.3c20.4-0.3 40.6-0.8 60.3-1.5z m101.9-6.1l-86.1 358c-11.8 1.9-23.9 3.5-36.1 4.8l60.7-358.7c21.2-1 41.7-2.4 61.5-4.1z" fill="#FDB600" p-id="4922"></path><path d="M815.7 565.9L687.5 923c-12.7 3.3-25.6 6.3-38.7 8.9l102.9-357.6c22.6-2.5 44-5.3 64-8.4z m113.8-23.4l-0.9 1.9L759 899.5c-14.3 5.7-29 11-44.2 15.7L860 558.1c23.5-4.7 44.2-10 61.5-15.6h8z" fill="#FCA700" p-id="4923"></path><path d="M950.2 515.5c0 19-7.2 37.3-20.6 54.4-30.5 19.7-64.2 40.9-88.2 55.3-9.3-11.9-18.5-23.9-27.5-35.9-14.3 9.6-28.8 19-43.4 28.3-8.8 5.6-17.7 11.3-26.7 16.8-7-7.9-13.9-15.9-20.7-23.9-3.6-4.2-7.2-8.4-10.7-12.5-4.6 3-9.1 6-13.7 9-17.4 11.3-35 22.5-52.8 33.4-11.9-12.4-23.7-24.8-35.3-37.3-20.7 13.6-41.7 26.9-62.9 40.1-13.2-12.7-26.3-25.6-39.1-38.5-19.5 12.8-39.2 25.5-59.2 37.9-14.5-13.2-28.8-26.5-42.9-40-18.2 12.2-36.7 24.2-55.4 36.1-11.6-10.2-23.1-20.4-34.5-30.7-4.1-3.7-8.1-7.4-12.2-11.1-8 5.5-16.1 11-24.2 16.4-9.1 6.1-18.2 12.1-27.4 18.1-4.7-4-9.4-8-14-12-12.2-10.6-24.3-21.2-36.3-31.9-15.7 11.2-31.6 22.4-47.7 33.3-17.4-14.7-47.8-39.9-74.3-62.5-8.3-13.8-12.7-28.2-12.7-43 0-7 1-14 2.9-20.8C95.9 405.2 286.5 292 512.9 292c236.6 0 425.7 119.6 436.7 214.9 0.4 2.8 0.6 5.7 0.6 8.6z" fill="#DC7130" p-id="4924"></path><path d="M948.9 540.1c0 19-7.2 37.3-20.6 54.4-24.3 15.7-50.7 32.4-72.6 45.8-8.8 5.4-20.4 3.3-26.7-4.9-1.7-2.2-3.4-4.4-5-6.6-6.4-8.4-18.2-10.4-27.1-4.6-9.2 6-18.4 12-27.7 18-4 2.5-7.9 5.1-11.9 7.6-8.5 5.3-19.6 3.7-26.2-3.9l-9.3-10.8c0-0.1-0.1-0.1-0.1-0.2-6.1-7.1-16.4-8.5-24.2-3.5l-0.1 0.1c-12.8 8.3-25.7 16.6-38.8 24.7-8.1 5.1-18.8 3.8-25.4-3.2-4.1-4.3-8.2-8.7-12.3-13.1-6.7-7.1-17.4-8.4-25.6-3.1-11.7 7.6-23.4 15-35.3 22.4-7.9 5-18.3 3.8-25-2.7-5.4-5.3-10.8-10.6-16.1-15.9-6.8-6.7-17.2-7.8-25.2-2.6-10.7 7-21.5 13.9-32.4 20.7-7.8 4.9-17.9 3.9-24.6-2.3-6.7-6.1-13.3-12.3-19.8-18.5-6.8-6.4-17.1-7.3-24.9-2.2-9.7 6.4-19.4 12.7-29.2 19-7.6 4.9-17.6 4.1-24.4-1.9-7.7-6.8-15.4-13.7-23-20.6l-0.2-0.2c-7-6.4-17.5-7.1-25.3-1.6-6.9 4.9-14.4 10.3-20.5 14.7-7 5-16.4 5.1-23.4 0.1-9.5-6.7-22.8-16.3-33.1-24.1-7-5.4-16.7-5.6-24-0.5-7.5 5.3-15.1 10.6-22.7 15.9-7.4 5.1-17.2 4.6-24.1-1.1-17.6-14.8-41.4-34.6-62.8-52.8-8.3-13.8-12.7-28.2-12.7-43 0-7 1-14 2.9-20.8 18.5 16.1 53.7 43.5 75.5 61.4 6.5 5.4 15.7 5.9 22.9 1.4 7.9-5 15.8-9.7 23.7-14.7 7.7-4.9 17.7-4.1 24.5 2 10.5 9.4 21 18.8 31.7 28.1 4.2 3.7 10.5 4.1 15.2 1 10.4-7 20.7-14 30.9-21 7.7-5.4 18.1-4.6 25 1.8 7.8 7.2 15.6 14.3 23.5 21.4 6.9 6.2 17.1 7 24.9 1.9 9.9-6.5 19.7-13 29.4-19.5 7.9-5.3 18.3-4.4 25.1 2.1 6.6 6.3 13.2 12.6 19.9 18.9 6.8 6.4 17.2 7.3 25 2.3 11-7.1 21.9-14.2 32.7-21.4 8-5.3 18.6-4.3 25.4 2.6l16.2 16.2c6.7 6.7 17.3 7.8 25.3 2.7 12-7.7 24-15.5 35.8-23.3 8.2-5.5 19.1-4.2 25.8 3.1 4.1 4.4 8.2 8.9 12.4 13.3 6.7 7.1 17.6 8.5 25.8 3.2 12.9-8.3 25.7-16.7 38.4-25.2 8.5-5.7 19.9-4.1 26.5 3.7 2.8 3.4 5.7 6.7 8.6 10 6.6 7.7 18 9.3 26.5 3.8 13.7-8.9 27.3-17.9 40.7-27 8.8-6 20.7-4 27.1 4.5 1.8 2.4 3.7 4.8 5.5 7.3 6.2 8.1 17.5 10.2 26.2 4.8 25.8-16 60.9-38.5 83-53 0.1 3.1 0.3 6 0.3 8.9z" fill="#C65D1E" p-id="4925"></path><path d="M806.1 345.1c0 83-134.6 37.6-300.6 37.6s-300.6 45.4-300.6-37.6 134.6-150.3 300.6-150.3 300.6 67.3 300.6 150.3z" fill="#FFDA78" p-id="4926"></path><path d="M507.6 210.8c-138.9 14.8-263.5 70-282.6 140.1-0.3-2.1-0.4-4.4-0.4-6.8 0-73.7 119.5-133.5 267-133.5 5.4 0 10.7 0.1 16 0.2z" fill="#FCF1A6" p-id="4927"></path><path d="M806.1 345.1c0 83-134.6 37.6-300.6 37.6-138.2 0-254.6 31.5-289.7-5.8 59 0.9 145.1-13.3 240.9-13.3 178 0 322.2 48.7 322.2-40.3 0-22.6-9.3-44.1-26.1-63.6 33.6 24.2 53.3 53.7 53.3 85.4z" fill="#FFB73B" p-id="4928"></path><path d="M407.1 162a98.4 98.4 0 1 0 196.8 0 98.4 98.4 0 1 0-196.8 0z" fill="#FC5400" p-id="4929"></path><path d="M603.9 162c0 54.3-44 98.4-98.4 98.4-34.7 0-65.2-18-82.7-45.1 15.3 9.9 33.6 15.6 53.2 15.6 54.3 0 98.4-44 98.4-98.4 0-19.6-5.7-37.9-15.6-53.2 27.1 17.5 45.1 48 45.1 82.7z" fill="#F63B00" p-id="4930"></path><path d="M266.3 468.1c9.4 16-9.4 32.7-42 37.4s-66.7-4.6-76.1-20.6c-9.4-16 9.4-32.7 42-37.4 32.7-4.7 66.7 4.6 76.1 20.6z" fill="#FFFFFF" p-id="4931"></path><path d="M140.277 482.57a11.4 13.6 44.101 1 0 18.929-19.533 11.4 13.6 44.101 1 0-18.93 19.532zM456.9 153.5c-10.2-1.1-17.6-10.3-16.5-20.4 1.1-10.2 10.3-17.6 20.4-16.5 10.2 1.1 17.6 10.3 16.5 20.4-1 10.1-10.2 17.5-20.4 16.5z" fill="#FFFFFF" p-id="4932"></path><path d="M435.1 125.9a9.1 9.1 0 1 0 18.2 0 9.1 9.1 0 1 0-18.2 0z" fill="#FFFFFF" p-id="4933"></path></svg>